<?xml version="1.0" standalone="no"?>
<svg xmlns:xlink="http://www.w3.org/1999/xlink" id="wave" style="transform:rotate(180deg); transition: 0.3s" viewBox="0 0 1440 490" version="1.1" xmlns="http://www.w3.org/2000/svg"><defs><linearGradient id="sw-gradient-0" x1="0" x2="0" y1="1" y2="0"><stop stop-color="rgba(69, 41, 199, 1)" offset="0%"/><stop stop-color="rgba(152, 84, 255, 1)" offset="100%"/></linearGradient></defs><path style="transform:translate(0, 0px); opacity:1" fill="url(#sw-gradient-0)" d="M0,98L48,147C96,196,192,294,288,302.2C384,310,480,229,576,228.7C672,229,768,310,864,302.2C960,294,1056,196,1152,179.7C1248,163,1344,229,1440,228.7C1536,229,1632,163,1728,179.7C1824,196,1920,294,2016,343C2112,392,2208,392,2304,383.8C2400,376,2496,359,2592,326.7C2688,294,2784,245,2880,253.2C2976,261,3072,327,3168,318.5C3264,310,3360,229,3456,163.3C3552,98,3648,49,3744,65.3C3840,82,3936,163,4032,187.8C4128,212,4224,180,4320,204.2C4416,229,4512,310,4608,359.3C4704,408,4800,425,4896,400.2C4992,376,5088,310,5184,236.8C5280,163,5376,82,5472,73.5C5568,65,5664,131,5760,187.8C5856,245,5952,294,6048,261.3C6144,229,6240,114,6336,81.7C6432,49,6528,98,6624,98C6720,98,6816,49,6864,24.5L6912,0L6912,490L6864,490C6816,490,6720,490,6624,490C6528,490,6432,490,6336,490C6240,490,6144,490,6048,490C5952,490,5856,490,5760,490C5664,490,5568,490,5472,490C5376,490,5280,490,5184,490C5088,490,4992,490,4896,490C4800,490,4704,490,4608,490C4512,490,4416,490,4320,490C4224,490,4128,490,4032,490C3936,490,3840,490,3744,490C3648,490,3552,490,3456,490C3360,490,3264,490,3168,490C3072,490,2976,490,2880,490C2784,490,2688,490,2592,490C2496,490,2400,490,2304,490C2208,490,2112,490,2016,490C1920,490,1824,490,1728,490C1632,490,1536,490,1440,490C1344,490,1248,490,1152,490C1056,490,960,490,864,490C768,490,672,490,576,490C480,490,384,490,288,490C192,490,96,490,48,490L0,490Z"/></svg>