<?xml version="1.0" standalone="no"?>
<svg xmlns:xlink="http://www.w3.org/1999/xlink" id="wave" style="transform:rotate(0deg); transition: 0.3s" viewBox="0 0 1440 490" version="1.1" xmlns="http://www.w3.org/2000/svg"><defs><linearGradient id="sw-gradient-0" x1="0" x2="0" y1="1" y2="0"><stop stop-color="rgba(69, 41, 199, 1)" offset="0%"/><stop stop-color="rgba(152, 84, 255, 1)" offset="100%"/></linearGradient></defs><path style="transform:translate(0, 0px); opacity:1" fill="url(#sw-gradient-0)" d="M0,49L60,65.3C120,82,240,114,360,106.2C480,98,600,49,720,57.2C840,65,960,131,1080,204.2C1200,278,1320,359,1440,326.7C1560,294,1680,147,1800,114.3C1920,82,2040,163,2160,236.8C2280,310,2400,376,2520,359.3C2640,343,2760,245,2880,228.7C3000,212,3120,278,3240,285.8C3360,294,3480,245,3600,245C3720,245,3840,294,3960,294C4080,294,4200,245,4320,253.2C4440,261,4560,327,4680,310.3C4800,294,4920,196,5040,155.2C5160,114,5280,131,5400,114.3C5520,98,5640,49,5760,89.8C5880,131,6000,261,6120,326.7C6240,392,6360,392,6480,392C6600,392,6720,392,6840,351.2C6960,310,7080,229,7200,212.3C7320,196,7440,245,7560,285.8C7680,327,7800,359,7920,343C8040,327,8160,261,8280,220.5C8400,180,8520,163,8580,155.2L8640,147L8640,490L8580,490C8520,490,8400,490,8280,490C8160,490,8040,490,7920,490C7800,490,7680,490,7560,490C7440,490,7320,490,7200,490C7080,490,6960,490,6840,490C6720,490,6600,490,6480,490C6360,490,6240,490,6120,490C6000,490,5880,490,5760,490C5640,490,5520,490,5400,490C5280,490,5160,490,5040,490C4920,490,4800,490,4680,490C4560,490,4440,490,4320,490C4200,490,4080,490,3960,490C3840,490,3720,490,3600,490C3480,490,3360,490,3240,490C3120,490,3000,490,2880,490C2760,490,2640,490,2520,490C2400,490,2280,490,2160,490C2040,490,1920,490,1800,490C1680,490,1560,490,1440,490C1320,490,1200,490,1080,490C960,490,840,490,720,490C600,490,480,490,360,490C240,490,120,490,60,490L0,490Z"/></svg>